<svg style="display: none;" xmlns="http://www.w3.org/2000/svg" xmlns:xlink="http://www.w3.org/1999/xlink">

	<symbol id="download" viewBox="0 0 13.04 15.52">
		<g>
			<path d="M11.51,4.26h-1.48c-0.68,0-1.24-0.56-1.24-1.24V1.54h0.7v1.48c0,0.3,0.24,0.54,0.54,0.54h1.48V4.26z"/>
			<path d="M11.51,15.52H2.62c-0.85,0-1.54-0.69-1.54-1.54v-2.37h0.7v2.37c0,0.46,0.37,0.84,0.84,0.84h8.89
				c0.46,0,0.84-0.38,0.84-0.84V3.8c0-0.22-0.09-0.43-0.25-0.59L9.83,0.94C9.67,0.79,9.46,0.7,9.24,0.7H2.62
				c-0.46,0-0.84,0.37-0.84,0.84v4.74h-0.7V1.54C1.08,0.69,1.77,0,2.62,0h6.62c0.41,0,0.79,0.16,1.08,0.45l2.27,2.27
				c0.29,0.29,0.45,0.68,0.45,1.09v10.18C13.04,14.83,12.35,15.52,11.51,15.52z"/>
			<polygon points="4.99,13.88 0,8.9 0.5,8.4 4.99,12.89 9.48,8.4 9.98,8.9 	"/>
			<rect x="4.64" y="3.91" class="st0" width="0.7" height="9.48"/>
		</g>
	</symbol>
	<symbol id="open" viewBox="0 0 12.52 15.52">
		<g>
			<path d="M10.98,4.26H9.5c-0.68,0-1.24-0.56-1.24-1.24V1.54h0.7v1.48c0,0.3,0.24,0.54,0.54,0.54h1.48V4.26z"/>
			<path d="M10.98,15.52H2.09c-0.85,0-1.54-0.69-1.54-1.53v-2.37h0.7v2.37c0,0.46,0.37,0.83,0.83,0.83h8.89
				c0.46,0,0.84-0.38,0.84-0.83V3.8c0-0.22-0.09-0.43-0.25-0.59L9.31,0.94C9.15,0.79,8.94,0.7,8.71,0.7H2.09
				c-0.46,0-0.83,0.37-0.83,0.83v3.22h-0.7V1.54C0.56,0.69,1.25,0,2.09,0h6.62c0.41,0,0.8,0.16,1.09,0.45l2.27,2.27
				c0.29,0.29,0.45,0.68,0.45,1.09v10.18C12.52,14.83,11.83,15.52,10.98,15.52z"/>
			<g>
				<path d="M3.25,11.5C1.46,11.5,0,10.04,0,8.25S1.46,5,3.25,5S6.5,6.46,6.5,8.25S5.04,11.5,3.25,11.5z M3.25,5.7
					C1.84,5.7,0.7,6.84,0.7,8.25c0,1.41,1.14,2.55,2.55,2.55S5.8,9.66,5.8,8.25C5.8,6.84,4.66,5.7,3.25,5.7z"/>
				<path d="M2.04,8.25h-0.7c0-1.05,0.86-1.91,1.91-1.91v0.7C2.58,7.04,2.04,7.58,2.04,8.25z"/>
				<path d="M7.04,13.28H6.9l-2.34-2.34l0.5-0.49l2.12,2.12c0.2-0.05,0.35-0.2,0.4-0.4l-2.12-2.12l0.5-0.49l2.34,2.34
					v0.14C8.29,12.73,7.73,13.28,7.04,13.28z"/>
			</g>
		</g>
	</symbol>
	<symbol id="index" viewBox="0 0 14.77 14.27">
		<g>
			<ellipse fill="#B0B0B0" cx="7.39" cy="7.14" rx="7.39" ry="7.14"/>
			<path fill="#FFFFFF" d="M11.72,4.67H3.05c-0.3,0-0.55,0.24-0.55,0.53v3.86c0,0.29,0.25,0.53,0.55,0.53h8.67c0.3,0,0.55-0.24,0.55-0.53
				V5.2C12.27,4.91,12.02,4.67,11.72,4.67z M10.68,7.2c0,0.27-0.23,0.49-0.51,0.49H4.61c-0.28,0-0.51-0.22-0.51-0.49V7.07
				c0-0.27,0.23-0.49,0.51-0.49h5.56c0.28,0,0.51,0.22,0.51,0.49V7.2z"/>
		</g>
	</symbol>
	<symbol id="address" viewBox="0 0 14.16 16.9">
		<g>
			<path fill="#B0B0B0" d="M6.74,16.76c0.09,0.09,0.21,0.14,0.34,0.14c0.13,0,0.25-0.05,0.34-0.14l4.67-4.67c2.76-2.76,2.76-7.26,0-10.02
				C10.75,0.74,8.97,0,7.08,0C5.19,0,3.41,0.74,2.07,2.08c-2.76,2.76-2.76,7.26,0,10.02L6.74,16.76z"/>
			<path fill="#B0B0B0" d="M2.75,2.76C3.91,1.6,5.45,0.97,7.08,0.97c1.63,0,3.17,0.64,4.33,1.79c2.39,2.39,2.39,6.27,0,8.65l-4.33,4.33
				l-4.33-4.33C0.37,9.03,0.37,5.14,2.75,2.76z"/>
			<circle fill="#B0B0B0" cx="7.08" cy="7.08" r="5.15"/>
			<circle fill="#FFFFFF" cx="7.08" cy="7.08" r="4.19"/>
		</g>
	</symbol>
	<symbol id="subway" viewBox="0 0 14.77 14.77">
		<g>
			<ellipse fill="#B0B0B0" transform="matrix(0.3789 -0.9254 0.9254 0.3789 -2.2478 11.4231)" class="st0" cx="7.39" cy="7.39" rx="7.39" ry="7.39"/>
			<polygon fill="#FFFFFF" points="11.83,9.27 9.42,3.17 7.39,6.73 5.35,3.17 2.94,9.27 2.23,9.27 2.23,10.19 5.88,10.19 5.88,9.27 
				5.33,9.27 5.86,7.75 7.39,10.26 8.91,7.75 9.44,9.27 8.9,9.27 8.9,10.19 12.54,10.19 12.54,9.27 	"/>
		</g>
	</symbol>
	<symbol id="phone" viewBox="0 0 14.77 14.77">
		<g>
			<ellipse fill="#B0B0B0" transform="matrix(0.3789 -0.9254 0.9254 0.3789 -2.245 11.4212)" cx="7.39" cy="7.38" rx="7.39" ry="7.39"/>
			<path fill="#FFFFFF" d="M10.21,11.84c-1.94,0-3.77-0.76-5.15-2.13C3.69,8.33,2.91,6.43,2.93,4.48c0-0.05,0.08-0.43,0.26-0.62
				l0.59-0.59c0.21-0.21,0.55-0.34,0.89-0.34c0.12,0,0.24,0.02,0.34,0.05l0.12,0.04C5.53,3.15,5.9,3.55,6.01,3.94l0.3,1.09
				c0.11,0.4-0.03,0.93-0.32,1.22L5.71,6.53c0.38,1.2,1.33,2.14,2.53,2.53l0.27-0.27c0.22-0.22,0.58-0.36,0.93-0.36
				c0.1,0,0.2,0.01,0.29,0.04l1.09,0.3c0.39,0.11,0.79,0.48,0.92,0.87l0.04,0.13c0.13,0.4,0,0.94-0.29,1.23l-0.59,0.59
				c-0.18,0.18-0.58,0.26-0.64,0.26H10.21z"/>
			<path fill="#FFFFFF" d="M11.29,10.77l-0.59,0.59c-0.11,0.11-0.41,0.17-0.42,0.17c-1.87,0.02-3.67-0.72-5-2.04
				C3.95,8.17,3.21,6.36,3.23,4.48c0,0,0.07-0.3,0.17-0.41L4,3.48c0.22-0.22,0.63-0.32,0.92-0.22l0.12,0.04
				c0.29,0.1,0.6,0.42,0.68,0.71l0.3,1.09c0.08,0.3-0.03,0.72-0.24,0.94L5.38,6.44c0.39,1.44,1.51,2.56,2.95,2.95L8.72,9
				c0.22-0.22,0.64-0.33,0.94-0.25l1.09,0.3c0.3,0.08,0.62,0.38,0.71,0.67l0.04,0.13C11.6,10.14,11.5,10.56,11.29,10.77z"/>
		</g>
	</symbol>
	<symbol id="e-mail" viewBox="0 0 14.77 14.77">
		<g>
			<path fill="#B0B0B0" d="M7.39,0C3.31,0,0,3.3,0,7.38c0,4.08,3.31,7.39,7.39,7.39s7.39-3.31,7.39-7.39C14.77,3.3,11.46,0,7.39,0z"/>
			<polygon fill="#FFFFFF" points="7.39,2.59 11.76,5.32 3.02,5.32 	"/>
			<path fill="#FFFFFF" d="M11.81,9.67L11.81,9.67c0,0.44-0.35,0.79-0.79,0.79H3.75c-0.44,0-0.79-0.35-0.79-0.79V5.49
				c0-0.05,0-0.09,0.01-0.14l4.18,2.6c0.01,0,0.01,0.01,0.02,0.01c0.01,0,0.01,0.01,0.02,0.01C7.21,7.99,7.24,8,7.27,8.01
				c0,0,0.01,0,0.01,0c0.03,0.01,0.07,0.01,0.1,0.01h0c0,0,0,0,0,0c0.03,0,0.07,0,0.1-0.01c0,0,0.01,0,0.01,0
				C7.53,8,7.56,7.99,7.59,7.98c0.01,0,0.01-0.01,0.02-0.01c0.01,0,0.01-0.01,0.02-0.01l4.18-2.6c0.01,0.04,0.01,0.09,0.01,0.14
				L11.81,9.67L11.81,9.67z"/>
		</g>
	</symbol>
	<symbol id="worktime" viewBox="0 0 14.77 14.77">
		<g>
			<path fill="#B0B0B0" d="M7.39,0C3.31,0,0,3.3,0,7.38c0,4.08,3.31,7.39,7.39,7.39s7.39-3.31,7.39-7.39C14.77,3.3,11.46,0,7.39,0z"/>
			<path fill="#FFFFFF" d="M11.04,3.82h-0.77V2.66c0-0.21-0.17-0.39-0.39-0.39S9.49,2.45,9.49,2.66v2.32c-0.43,0-0.77-0.35-0.77-0.77
							V3.82H6V2.66c0-0.21-0.17-0.39-0.39-0.39S5.23,2.45,5.23,2.66v2.32c-0.43,0-0.77-0.35-0.77-0.77V3.82H4.06
							c-0.43,0-0.77,0.35-0.77,0.77v6.2c0,0.43,0.35,0.77,0.77,0.77h6.97c0.43,0,0.77-0.35,0.77-0.77V6.15V5.76V4.6
							C11.81,4.17,11.46,3.82,11.04,3.82z M11.04,10.8c-1.69,0-5.25,0-6.97,0V6.15h6.97V10.8z"/>
		</g>
	</symbol>
	<symbol id="vk" viewBox="0 0 548.358 548.358">
		<g>
			<path d="M545.451,400.298c-0.664-1.431-1.283-2.618-1.858-3.569c-9.514-17.135-27.695-38.167-54.532-63.102l-0.567-0.571
				l-0.284-0.28l-0.287-0.287h-0.288c-12.18-11.611-19.893-19.418-23.123-23.415c-5.91-7.614-7.234-15.321-4.004-23.13
				c2.282-5.9,10.854-18.36,25.696-37.397c7.807-10.089,13.99-18.175,18.556-24.267c32.931-43.78,47.208-71.756,42.828-83.939
				l-1.701-2.847c-1.143-1.714-4.093-3.282-8.846-4.712c-4.764-1.427-10.853-1.663-18.278-0.712l-82.224,0.568
				c-1.332-0.472-3.234-0.428-5.712,0.144c-2.475,0.572-3.713,0.859-3.713,0.859l-1.431,0.715l-1.136,0.859
				c-0.952,0.568-1.999,1.567-3.142,2.995c-1.137,1.423-2.088,3.093-2.848,4.996c-8.952,23.031-19.13,44.444-30.553,64.238
				c-7.043,11.803-13.511,22.032-19.418,30.693c-5.899,8.658-10.848,15.037-14.842,19.126c-4,4.093-7.61,7.372-10.852,9.849
				c-3.237,2.478-5.708,3.525-7.419,3.142c-1.715-0.383-3.33-0.763-4.859-1.143c-2.663-1.714-4.805-4.045-6.42-6.995
				c-1.622-2.95-2.714-6.663-3.285-11.136c-0.568-4.476-0.904-8.326-1-11.563c-0.089-3.233-0.048-7.806,0.145-13.706
				c0.198-5.903,0.287-9.897,0.287-11.991c0-7.234,0.141-15.085,0.424-23.555c0.288-8.47,0.521-15.181,0.716-20.125
				c0.194-4.949,0.284-10.185,0.284-15.705s-0.336-9.849-1-12.991c-0.656-3.138-1.663-6.184-2.99-9.137
				c-1.335-2.95-3.289-5.232-5.853-6.852c-2.569-1.618-5.763-2.902-9.564-3.856c-10.089-2.283-22.936-3.518-38.547-3.71
				c-35.401-0.38-58.148,1.906-68.236,6.855c-3.997,2.091-7.614,4.948-10.848,8.562c-3.427,4.189-3.905,6.475-1.431,6.851
				c11.422,1.711,19.508,5.804,24.267,12.275l1.715,3.429c1.334,2.474,2.666,6.854,3.999,13.134c1.331,6.28,2.19,13.227,2.568,20.837
				c0.95,13.897,0.95,25.793,0,35.689c-0.953,9.9-1.853,17.607-2.712,23.127c-0.859,5.52-2.143,9.993-3.855,13.418
				c-1.715,3.426-2.856,5.52-3.428,6.28c-0.571,0.76-1.047,1.239-1.425,1.427c-2.474,0.948-5.047,1.431-7.71,1.431
				c-2.667,0-5.901-1.334-9.707-4c-3.805-2.666-7.754-6.328-11.847-10.992c-4.093-4.665-8.709-11.184-13.85-19.558
				c-5.137-8.374-10.467-18.271-15.987-29.691l-4.567-8.282c-2.855-5.328-6.755-13.086-11.704-23.267
				c-4.952-10.185-9.329-20.037-13.134-29.554c-1.521-3.997-3.806-7.04-6.851-9.134l-1.429-0.859c-0.95-0.76-2.475-1.567-4.567-2.427
				c-2.095-0.859-4.281-1.475-6.567-1.854l-78.229,0.568c-7.994,0-13.418,1.811-16.274,5.428l-1.143,1.711
				C0.288,140.146,0,141.668,0,143.763c0,2.094,0.571,4.664,1.714,7.707c11.42,26.84,23.839,52.725,37.257,77.659
				c13.418,24.934,25.078,45.019,34.973,60.237c9.897,15.229,19.985,29.602,30.264,43.112c10.279,13.515,17.083,22.176,20.412,25.981
				c3.333,3.812,5.951,6.662,7.854,8.565l7.139,6.851c4.568,4.569,11.276,10.041,20.127,16.416
				c8.853,6.379,18.654,12.659,29.408,18.85c10.756,6.181,23.269,11.225,37.546,15.126c14.275,3.905,28.169,5.472,41.684,4.716h32.834
				c6.659-0.575,11.704-2.669,15.133-6.283l1.136-1.431c0.764-1.136,1.479-2.901,2.139-5.276c0.668-2.379,1-5,1-7.851
				c-0.195-8.183,0.428-15.558,1.852-22.124c1.423-6.564,3.045-11.513,4.859-14.846c1.813-3.33,3.859-6.14,6.136-8.418
				c2.282-2.283,3.908-3.666,4.862-4.142c0.948-0.479,1.705-0.804,2.276-0.999c4.568-1.522,9.944-0.048,16.136,4.429
				c6.187,4.473,11.99,9.996,17.418,16.56c5.425,6.57,11.943,13.941,19.555,22.124c7.617,8.186,14.277,14.271,19.985,18.274
				l5.708,3.426c3.812,2.286,8.761,4.38,14.853,6.283c6.081,1.902,11.409,2.378,15.984,1.427l73.087-1.14
				c7.229,0,12.854-1.197,16.844-3.572c3.998-2.379,6.373-5,7.139-7.851c0.764-2.854,0.805-6.092,0.145-9.712
				C546.782,404.25,546.115,401.725,545.451,400.298z"/>
		</g>
	</symbol>
	<symbol id="fb" viewBox="0 0 96.124 96.123">
		<g>
			<path d="M72.089,0.02L59.624,0C45.62,0,36.57,9.285,36.57,23.656v10.907H24.037c-1.083,0-1.96,0.878-1.96,1.961v15.803
				c0,1.083,0.878,1.96,1.96,1.96h12.533v39.876c0,1.083,0.877,1.96,1.96,1.96h16.352c1.083,0,1.96-0.878,1.96-1.96V54.287h14.654
				c1.083,0,1.96-0.877,1.96-1.96l0.006-15.803c0-0.52-0.207-1.018-0.574-1.386c-0.367-0.368-0.867-0.575-1.387-0.575H56.842v-9.246
				c0-4.444,1.059-6.7,6.848-6.7l8.397-0.003c1.082,0,1.959-0.878,1.959-1.96V1.98C74.046,0.899,73.17,0.022,72.089,0.02z"/>
		</g>
	</symbol>
	<symbol id="ig" viewBox="0 0 24 24">
		<path d="m12.004 5.838c-3.403 0-6.158 2.758-6.158 6.158 0 3.403 2.758 6.158 6.158 6.158 3.403 0 6.158-2.758 6.158-6.158 0-3.403-2.758-6.158-6.158-6.158zm0 10.155c-2.209 0-3.997-1.789-3.997-3.997s1.789-3.997 3.997-3.997 3.997 1.789 3.997 3.997c.001 2.208-1.788 3.997-3.997 3.997z"/>
		<path d="m16.948.076c-2.208-.103-7.677-.098-9.887 0-1.942.091-3.655.56-5.036 1.941-2.308 2.308-2.013 5.418-2.013 9.979 0 4.668-.26 7.706 2.013 9.979 2.317 2.316 5.472 2.013 9.979 2.013 4.624 0 6.22.003 7.855-.63 2.223-.863 3.901-2.85 4.065-6.419.104-2.209.098-7.677 0-9.887-.198-4.213-2.459-6.768-6.976-6.976zm3.495 20.372c-1.513 1.513-3.612 1.378-8.468 1.378-5 0-7.005.074-8.468-1.393-1.685-1.677-1.38-4.37-1.38-8.453 0-5.525-.567-9.504 4.978-9.788 1.274-.045 1.649-.06 4.856-.06l.045.03c5.329 0 9.51-.558 9.761 4.986.057 1.265.07 1.645.07 4.847-.001 4.942.093 6.959-1.394 8.453z"/>
		<circle cx="18.406" cy="5.595" r="1.439"/>	
	</symbol>
	<symbol id="calendar" viewBox="0 0 25.83 29.32">
		<g>
			<g>
				<g>
					<path d="M23.16,3.48h-1.29V2.38C21.87,1.07,20.8,0,19.49,0c-1.31,0-2.38,1.07-2.38,2.38v1.11h-8.4V2.38
						C8.71,1.07,7.65,0,6.34,0S3.96,1.07,3.96,2.38v1.11H2.67C1.2,3.48,0,4.68,0,6.16v20.48c0,1.47,1.2,2.67,2.67,2.67h20.48
						c1.47,0,2.67-1.2,2.67-2.67V6.16C25.83,4.68,24.63,3.48,23.16,3.48z M18.4,2.38c0-0.6,0.49-1.09,1.09-1.09
						c0.6,0,1.09,0.49,1.09,1.09v3.41c0,0.6-0.49,1.09-1.09,1.09c-0.6,0-1.09-0.49-1.09-1.09V2.38z M5.24,2.38
						c0-0.6,0.49-1.09,1.09-1.09s1.09,0.49,1.09,1.09v3.41c0,0.6-0.49,1.09-1.09,1.09S5.24,6.39,5.24,5.78V2.38z M24.55,26.64
						c0,0.77-0.62,1.39-1.39,1.39H2.67c-0.77,0-1.39-0.62-1.39-1.39V6.16c0-0.77,0.62-1.39,1.39-1.39h1.29v1.01
						c0,1.31,1.07,2.38,2.38,2.38s2.38-1.07,2.38-2.38V4.77h8.4v1.01c0,1.31,1.07,2.38,2.38,2.38c1.31,0,2.38-1.07,2.38-2.38V4.77
						h1.29c0.77,0,1.39,0.62,1.39,1.39V26.64z"/>
				</g>
				<g>
					<path d="M21.76,11.69h-5.9h-5.9h-5.9c-0.35,0-0.64,0.29-0.64,0.64v5.9v5.9c0,0.35,0.29,0.64,0.64,0.64h5.9h5.9h5.9
						c0.35,0,0.64-0.29,0.64-0.64v-5.9v-5.9C22.4,11.97,22.11,11.69,21.76,11.69z M21.12,17.58H16.5v-4.61h4.61V17.58z M15.22,17.58
						h-4.61v-4.61h4.61V17.58z M4.71,12.97h4.61v4.61H4.71V12.97z M4.71,18.86h4.61v4.61H4.71V18.86z M10.61,18.86h4.61v4.61h-4.61
						V18.86z M21.12,23.48H16.5v-4.61h4.61V23.48z"/>
				</g>
			</g>
		</g>
	</symbol>
	<symbol id="destroy" viewBox="0 0 28.53 34.67">
		<g>
			<path d="M27.75,31.59c-0.26,0-0.52-0.14-0.65-0.38l-5.27-9.3c-0.41-0.68-1.18-1.12-1.99-1.12h-4.42
				c-0.41,0-0.75-0.34-0.75-0.75s0.34-0.75,0.75-0.75h4.42c1.34,0,2.6,0.71,3.29,1.86l5.28,9.32c0.2,0.36,0.08,0.82-0.28,1.02
				C28,31.55,27.88,31.59,27.75,31.59z"/>
			<path d="M24.67,33.13c-0.25,0-0.5-0.13-0.64-0.36l-4.41-7.35h-7.29c-2.31,0-2.59-1.43-2.9-2.95
				C9.38,22.24,9.33,22,9.27,21.74c-0.44-1.98-1.61-8.24-1.78-9.57C7.36,11.22,7.52,10.51,7.96,10c0.44-0.5,1.11-0.75,2.04-0.75h0.77
				c2.48,0,3,1.74,3.5,3.42c0.09,0.3,0.18,0.62,0.29,0.95l0.64,2.57h5.59c0.41,0,0.75,0.34,0.75,0.75s-0.34,0.75-0.75,0.75h-6.17
				c-0.34,0-0.64-0.23-0.73-0.57l-0.77-3.09c-0.1-0.29-0.2-0.62-0.29-0.94c-0.53-1.79-0.77-2.35-2.07-2.35h-0.77
				c-0.33,0-0.75,0.04-0.92,0.23c-0.14,0.16-0.18,0.51-0.11,0.99c0.17,1.3,1.33,7.48,1.76,9.44c0.06,0.26,0.11,0.52,0.16,0.75
				c0.31,1.57,0.38,1.75,1.43,1.75h7.71c0.26,0,0.51,0.14,0.64,0.36l4.63,7.71c0.21,0.36,0.1,0.82-0.26,1.03
				C24.93,33.09,24.8,33.13,24.67,33.13z"/>
			<path d="M11.17,8.44c-0.01,0-0.03,0-0.04,0C10,8.43,8.95,7.98,8.16,7.18c-0.79-0.8-1.22-1.87-1.21-3
				C6.96,3.06,7.41,2,8.21,1.21C9.02,0.42,10.09,0,11.21,0c2.33,0.02,4.2,1.93,4.18,4.26c-0.01,1.13-0.46,2.18-1.26,2.97
				C13.33,8.01,12.28,8.44,11.17,8.44z M11.17,1.5c-0.72,0-1.39,0.28-1.9,0.78C8.75,2.79,8.46,3.47,8.45,4.2
				C8.44,4.92,8.72,5.61,9.23,6.13s1.19,0.81,1.91,0.81c0.01,0,0.02,0,0.03,0c0.72,0,1.39-0.28,1.9-0.78
				c0.52-0.51,0.81-1.19,0.81-1.92l0,0c0.01-1.5-1.19-2.73-2.69-2.75C11.18,1.5,11.18,1.5,11.17,1.5z"/>
			<path d="M10.78,34.67C4.83,34.67,0,29.84,0,23.89c0-4.03,2.22-7.7,5.8-9.56c0.37-0.19,0.82-0.05,1.01,0.32
				s0.05,0.82-0.32,1.01c-3.08,1.61-5,4.76-5,8.23c0,5.12,4.16,9.28,9.28,9.28c3.47,0,6.63-1.91,8.23-5c0.19-0.37,0.64-0.51,1.01-0.32
				s0.51,0.64,0.32,1.01C18.48,32.45,14.81,34.67,10.78,34.67z"/>
		</g>
	</symbol>
	<symbol id="important" viewBox="0 0 34.99 34.99">
		<g>
			<g>
				<g>
					<path d="M17.49,1.53c4.26,0,8.27,1.66,11.29,4.68c3.02,3.02,4.68,7.02,4.68,11.29s-1.66,8.27-4.68,11.29
						c-3.02,3.02-7.02,4.68-11.29,4.68S9.22,31.8,6.2,28.79c-3.02-3.02-4.68-7.02-4.68-11.29S3.19,9.22,6.2,6.21
						C9.22,3.19,13.23,1.53,17.49,1.53 M17.49,0C7.83,0-0.01,7.83-0.01,17.5s7.83,17.5,17.5,17.5s17.5-7.83,17.5-17.5S27.16,0,17.49,0
						L17.49,0z"/>
				</g>
				<g>
					<g>
						<g>
							<path d="M17.49,21.55c-0.42,0-0.77-0.34-0.77-0.77V8.02c0-0.42,0.34-0.77,0.77-0.77c0.42,0,0.77,0.34,0.77,0.77
								v12.76C18.26,21.21,17.92,21.55,17.49,21.55z"/>
						</g>
					</g>
					<g>
						<g>
							<path d="M17.49,27.74c-0.42,0-0.77-0.34-0.77-0.77v-0.85c0-0.42,0.34-0.77,0.77-0.77c0.42,0,0.77,0.34,0.77,0.77
								v0.85C18.26,27.4,17.92,27.74,17.49,27.74z"/>
						</g>
					</g>
				</g>
			</g>
		</g>
	</symbol>
	<symbol id="search" viewBox="0 0 34.84 34.99">
		<g>
			<g>
				<path d="M34.22,30.15l-6.1-6.1c-0.4-0.4-0.94-0.62-1.51-0.62c-0.56,0-1.08,0.21-1.48,0.6l-1.95-1.95
					c2.09-2.34,3.36-5.43,3.36-8.81C26.53,5.95,20.58,0,13.27,0C5.95,0,0,5.95,0,13.27s5.95,13.27,13.27,13.27
					c3.39,0,6.48-1.28,8.83-3.37l1.95,1.95l-0.15,0.15c-0.4,0.4-0.62,0.94-0.62,1.51c0,0.57,0.22,1.1,0.62,1.51l6.1,6.1
					c0.42,0.42,0.96,0.62,1.51,0.62c0.55,0,1.09-0.21,1.51-0.62l1.2-1.2C35.05,32.34,35.05,30.98,34.22,30.15z M13.27,25
					C6.79,25,1.53,19.74,1.53,13.27c0-6.47,5.26-11.74,11.74-11.74C19.74,1.53,25,6.79,25,13.27C25,19.74,19.74,25,13.27,25z
					M33.13,32.09l-1.2,1.2c-0.23,0.23-0.62,0.23-0.85,0l-6.1-6.1c-0.11-0.11-0.18-0.26-0.18-0.43s0.06-0.31,0.18-0.43l0.69-0.69l0,0
					l0,0l0.51-0.51c0.11-0.11,0.26-0.18,0.43-0.18s0.31,0.06,0.43,0.18l6.1,6.1C33.37,31.47,33.37,31.85,33.13,32.09z"/>
			</g>
		</g>
	</symbol>
	<symbol id="bell" viewBox="0 0 14 15.67">
		<g>
			<g>
				<path d="M13.98,13.19l-1.08-2.81V5.9C12.9,2.65,10.25,0,7,0S1.1,2.65,1.1,5.9v4.48l-1.08,2.81
					C-0.02,13.3,0,13.42,0.06,13.51c0.06,0.09,0.17,0.15,0.28,0.15h4.16c0.25,1.15,1.27,2.02,2.49,2.02c1.22,0,2.25-0.87,2.49-2.02
					h4.16c0.11,0,0.22-0.06,0.28-0.15C14,13.42,14.02,13.3,13.98,13.19z M7,0.69c2.87,0,5.21,2.34,5.21,5.21v4.2H1.79V5.9
					C1.79,3.02,4.12,0.69,7,0.69z M7,14.99c-0.84,0-1.56-0.56-1.79-1.33h3.57C8.56,14.43,7.84,14.99,7,14.99z M0.84,12.97l0.84-2.19
					h10.64l0.84,2.19H0.84z"/>
			</g>
		</g>
	</symbol>
	<symbol id="check" viewBox="0 0 15.1 15.67">
		<g>
			<g>
				<g>
					<path d="M15.17,8.29C15.17,8.29,15.17,8.29,15.17,8.29c0-0.02,0-0.03,0-0.04c0,0,0-0.01,0-0.01
						c-0.01-0.03-0.01-0.06-0.03-0.08c0,0,0-0.01,0-0.01c-0.01-0.01-0.01-0.02-0.02-0.04c0,0,0,0,0,0C15.1,8.1,15.1,8.08,15.09,8.07
						c0,0,0,0,0,0l-1.86-2.08c-0.06-0.07-0.16-0.11-0.25-0.11h-0.7V0.34c0-0.19-0.15-0.34-0.34-0.34H3.25C3.06,0,2.91,0.15,2.91,0.34
						v5.54h-0.7c-0.1,0-0.19,0.04-0.25,0.11L0.09,8.07c0,0,0,0,0,0C0.07,8.08,0.07,8.1,0.06,8.11c0,0,0,0,0,0
						C0.05,8.12,0.04,8.13,0.04,8.15c0,0,0,0.01,0,0.01C0.02,8.18,0.01,8.21,0.01,8.24c0,0,0,0.01,0,0.01c0,0.01,0,0.02,0,0.04
						c0,0,0,0.01,0,0.01c0,0,0,0,0,0v6.46c0,0.51,0.41,0.92,0.92,0.92h13.33c0.51,0,0.92-0.41,0.92-0.92L15.17,8.29
						C15.17,8.3,15.17,8.3,15.17,8.29z M12.81,6.56l1.25,1.39h-1.79V6.56H12.81z M3.59,0.69h7.99v7.27H3.59V0.69z M2.36,6.56h0.55
						v1.39H1.11L2.36,6.56z M14.48,14.75c0,0.13-0.11,0.24-0.24,0.24H0.92c-0.13,0-0.24-0.11-0.24-0.24V8.64h13.8V14.75z"/>
				</g>
				<g>
					<path d="M9.46,2.63L6.9,5.2L5.74,4.04c-0.13-0.13-0.35-0.13-0.48,0c-0.13,0.13-0.13,0.35,0,0.48l1.4,1.4
						c0.07,0.07,0.15,0.1,0.24,0.1c0.09,0,0.18-0.03,0.24-0.1l2.8-2.8c0.13-0.13,0.13-0.35,0-0.48C9.81,2.5,9.6,2.5,9.46,2.63z"/>
				</g>
				<g>
					<path d="M9.79,10.24H5.38c-0.19,0-0.34,0.15-0.34,0.34s0.15,0.34,0.34,0.34h4.41c0.19,0,0.34-0.15,0.34-0.34
						S9.98,10.24,9.79,10.24z"/>
				</g>
			</g>
		</g>
	</symbol>
	<symbol id="user" viewBox="0 0 15.73 15.67">
		<g>
			<g>
				<path d="M7.89,0C3.57,0,0.06,3.52,0.06,7.84s3.52,7.84,7.84,7.84s7.84-3.52,7.84-7.84S12.22,0,7.89,0z M7.89,0.69
					c3.94,0,7.15,3.21,7.15,7.15c0,1.3-0.35,2.51-0.95,3.56c-0.74-0.64-1.76-1.15-2.94-1.48c0.71-0.78,1.15-1.82,1.15-2.97
					c0-2.43-1.98-4.41-4.41-4.41S3.49,4.52,3.49,6.95c0,1.14,0.44,2.18,1.15,2.97c-1.18,0.33-2.2,0.84-2.94,1.48
					c-0.61-1.05-0.95-2.27-0.95-3.56C0.74,3.89,3.95,0.69,7.89,0.69z M4.17,6.95c0-2.05,1.67-3.72,3.72-3.72s3.72,1.67,3.72,3.72
					c0,2.05-1.67,3.72-3.72,3.72S4.17,9,4.17,6.95z M7.89,14.99c-2.4,0-4.53-1.19-5.82-3c0.75-0.69,1.87-1.21,3.17-1.51
					c0.74,0.56,1.66,0.89,2.65,0.89c0.99,0,1.91-0.33,2.65-0.89c1.3,0.3,2.42,0.83,3.17,1.51C12.42,13.8,10.29,14.99,7.89,14.99z"/>
			</g>
		</g>
	</symbol>
	<symbol id="raiting" viewBox="0 0 33.43 33.63">
		<path d="M16.71,33.63c-0.33,0-0.61-0.27-0.61-0.61v-5.74l-0.33,0.13c-0.84,0.35-1.73,0.52-2.64,0.52
			c-0.94,0-1.93-0.17-2.96-0.5c-1.58-0.5-3.72-1.19-5.68-1.19c-1.5,0-2.66,0.42-3.44,1.25c-0.12,0.12-0.27,0.19-0.44,0.19l0,0
			c-0.16,0-0.3-0.06-0.42-0.17c-0.24-0.23-0.25-0.62-0.02-0.86c1.48-1.56,2.42-3.79,3.34-5.94c0.37-0.88,0.74-1.74,1.13-2.53
			c0.18-0.36,0.35-0.72,0.52-1.09c0.65-1.38,1.32-2.79,2.22-4.02c2-2.74,4.55-4.63,7.37-5.46l0.28-0.08L14.9,7.29
			c-0.37-0.7-0.55-1.46-0.55-2.24c0-2.67,2.17-4.85,4.85-4.85s4.85,2.17,4.85,4.85c0,0.85-0.23,1.68-0.66,2.42l-0.21,0.36h4.8V0.81
			c0-0.34,0.27-0.61,0.61-0.61h3.39c0.33,0,0.61,0.27,0.61,0.61v7.63c0,2.2-1.79,4-4,4H24.1v3.02h5.33c2.21,0,4,1.79,4,4v6.78
			c0,0.34-0.27,0.61-0.61,0.61h-4.24c-0.33,0-0.61-0.27-0.61-0.61v-5.33h-2.2l-0.04,0.19c-0.16,0.7-0.55,1.34-1.04,1.71
			c-0.45,0.33-0.93,0.55-1.41,0.76c-0.18,0.08-0.36,0.16-0.53,0.24c-0.53,0.26-0.93,0.5-1.16,0.84l-0.04,0.06v8.31
			c0,0.34-0.27,0.61-0.61,0.61H16.71z M16.72,12.07c0.08,0,0.16,0.02,0.23,0.05c0.23,0.09,0.38,0.31,0.38,0.56v19.74h3.02V20.31
			c0-0.34,0.27-0.61,0.61-0.61h7.63c0.33,0,0.61,0.27,0.61,0.61v5.33h3.02v-6.17c0-1.53-1.25-2.78-2.78-2.78H23.5
			c-0.33,0-0.61-0.27-0.61-0.61v-4.24c0-0.34,0.27-0.61,0.61-0.61h5.09c1.53,0,2.78-1.25,2.78-2.78V1.42h-2.18v7.02
			c0,0.34-0.27,0.61-0.61,0.61h-6.66l-0.06,0.04c-0.3,0.2-0.64,0.37-1,0.5l-0.16,0.06v5.33H19.5V9.89c0,0-0.25,0-0.26,0
			c-1.05,0-2-0.3-2.82-0.87l-0.16-0.12l-4.84,4.84c-1.08,1.09-1.08,2.85,0,3.94l2.68,2.68l1.68-1.68l-2.54-2.54
			c-0.12-0.11-0.18-0.27-0.18-0.43c0-0.16,0.06-0.31,0.18-0.43l3.03-3.03C16.4,12.13,16.55,12.07,16.72,12.07z M4.47,25.04
			c2.15,0,4.41,0.72,6.07,1.25c0.88,0.28,1.74,0.42,2.55,0.42c1.07,0,2.05-0.25,2.9-0.75l0.12-0.07v-5.82l-1.57,1.57
			c-0.12,0.11-0.27,0.18-0.43,0.18c-0.16,0-0.31-0.06-0.43-0.18l-3.11-3.11c-0.75-0.75-1.17-1.76-1.17-2.83s0.42-2.07,1.17-2.83l3-3
			l-0.28-0.38c-2.31,1.16-3.95,2.98-4.92,4.31c-0.83,1.13-1.47,2.49-2.1,3.8c-0.19,0.39-0.36,0.76-0.54,1.12
			C5.35,19.51,5,20.32,4.63,21.19c-0.51,1.21-1.04,2.44-1.67,3.59l-0.23,0.43l0.48-0.08C3.61,25.08,4.03,25.04,4.47,25.04z
				M21.56,23.07l0.66-0.35c0.19-0.09,0.37-0.17,0.56-0.26c0.45-0.2,0.85-0.38,1.19-0.63c0.16-0.12,0.3-0.31,0.43-0.57l0.16-0.34h-3
			V23.07z M14.54,15.71l1.57,1.57v-3.13L14.54,15.71z M19.19,1.42c-2,0-3.63,1.63-3.63,3.63s1.63,3.63,3.63,3.63
			c2,0,3.63-1.63,3.63-3.63S21.19,1.42,19.19,1.42z"/>
	</symbol>
	<symbol id="event" viewBox="0 0 38.49 35.89">
		<g>
			<g>
				<path d="M19.26,35.48c-0.45,0-0.81-0.36-0.81-0.81v-7.82c0-0.45,0.36-0.81,0.81-0.81s0.81,0.36,0.81,0.81v7.82
					C20.07,35.12,19.71,35.48,19.26,35.48z"/>
			</g>
			<g>
				<path d="M26.49,35.89H12.04c-0.45,0-0.81-0.36-0.81-0.81c0-0.45,0.36-0.81,0.81-0.81h14.45
					c0.45,0,0.81,0.36,0.81,0.81C27.3,35.53,26.93,35.89,26.49,35.89z"/>
			</g>
			<g>
				<path d="M19.26,28.09c-0.25,0-0.48-0.11-0.63-0.3l-3.85-4.81C9.77,16.71,7.01,8.83,7.01,0.81C7.01,0.36,7.37,0,7.82,0
					h22.9c0.45,0,0.81,0.36,0.81,0.81c0,8.02-2.76,15.9-7.77,22.16l0,0l-3.85,4.81C19.74,27.98,19.51,28.09,19.26,28.09z M8.63,1.62
					c0.18,7.38,2.79,14.58,7.41,20.35l3.22,4.02l3.22-4.02c4.62-5.77,7.23-12.97,7.41-20.35H8.63z M23.11,22.47L23.11,22.47
					L23.11,22.47z"/>
			</g>
			<g>
				<path d="M24.43,21.52c-0.45,0-0.81-0.36-0.81-0.81s0.36-0.81,0.81-0.81c4.49,0,7.94-2.5,10.25-7.44
					c1.27-2.71,1.84-5.46,2.07-6.83h-6.27c-0.45,0-0.81-0.36-0.81-0.81s0.36-0.81,0.81-0.81h7.2c0.23,0,0.45,0.1,0.6,0.27
					c0.15,0.17,0.23,0.4,0.21,0.62C38.47,5.07,36.7,21.52,24.43,21.52z"/>
			</g>
			<g>
				<path d="M14.06,21.52C1.79,21.52,0.02,5.07,0,4.91c-0.02-0.23,0.05-0.45,0.21-0.62c0.15-0.17,0.37-0.27,0.6-0.27h7.2
					c0.45,0,0.81,0.36,0.81,0.81S8.45,5.63,8.01,5.63H1.74C1.96,7,2.53,9.75,3.8,12.46c2.31,4.94,5.76,7.44,10.25,7.44
					c0.45,0,0.81,0.36,0.81,0.81S14.5,21.52,14.06,21.52z"/>
			</g>
		</g>
	</symbol>
	<symbol id="message" viewBox="0 0 17.46 14.84">
		<g>
			<g>
				<g>
					<g>
						<path d="M4,14.84c-0.1,0-0.2-0.05-0.25-0.14l-1.78-2.94H0.91c-0.5,0-0.91-0.41-0.91-0.91V0.91C0,0.41,0.41,0,0.91,0
							h15.63c0.5,0,0.91,0.41,0.91,0.91v9.93c0,0.5-0.41,0.91-0.91,0.91H5.97l-1.71,2.93C4.2,14.78,4.1,14.84,4,14.84
							C4,14.84,4,14.84,4,14.84z M0.91,0.59c-0.18,0-0.32,0.14-0.32,0.32v9.93c0,0.18,0.14,0.32,0.32,0.32h1.21
							c0.1,0,0.2,0.05,0.25,0.14l1.61,2.66l1.55-2.65c0.05-0.09,0.15-0.15,0.26-0.15h10.75c0.18,0,0.32-0.14,0.32-0.32V0.91
							c0-0.18-0.14-0.32-0.32-0.32H0.91z"/>
					</g>
				</g>
				<g>
					<path d="M13.11,4.64H4.59c-0.16,0-0.3-0.13-0.3-0.3c0-0.16,0.13-0.3,0.3-0.3h8.52c0.16,0,0.3,0.13,0.3,0.3
						C13.41,4.51,13.28,4.64,13.11,4.64z"/>
				</g>
				<g>
					<path d="M13.11,7.89H4.59c-0.16,0-0.3-0.13-0.3-0.3c0-0.16,0.13-0.3,0.3-0.3h8.52c0.16,0,0.3,0.13,0.3,0.3
						C13.41,7.76,13.28,7.89,13.11,7.89z"/>
				</g>
			</g>
		</g>
	</symbol>
	<symbol id="arrow-left" viewBox="0 0 451.847 451.847">
		<g>
			<path d="M97.141,225.92c0-8.095,3.091-16.192,9.259-22.366L300.689,9.27c12.359-12.359,32.397-12.359,44.751,0
				c12.354,12.354,12.354,32.388,0,44.748L173.525,225.92l171.903,171.909c12.354,12.354,12.354,32.391,0,44.744
				c-12.354,12.365-32.386,12.365-44.745,0l-194.29-194.281C100.226,242.115,97.141,234.018,97.141,225.92z"/>
		</g>
	</symbol>
	<symbol id="arrow-right" viewBox="0 0 451.846 451.847">
		<g>
			<path d="M345.441,248.292L151.154,442.573c-12.359,12.365-32.397,12.365-44.75,0c-12.354-12.354-12.354-32.391,0-44.744
				L278.318,225.92L106.409,54.017c-12.354-12.359-12.354-32.394,0-44.748c12.354-12.359,32.391-12.359,44.75,0l194.287,194.284
				c6.177,6.18,9.262,14.271,9.262,22.366C354.708,234.018,351.617,242.115,345.441,248.292z"/>
		</g>
	</symbol>
	<symbol id="map" viewBox="0 0 430.114 430.114">
		<g>
			<path d="M356.208,107.051c-1.531-5.738-4.64-11.852-6.94-17.205C321.746,23.704,261.611,0,213.055,0
				C148.054,0,76.463,43.586,66.905,133.427v18.355c0,0.766,0.264,7.647,0.639,11.089c5.358,42.816,39.143,88.32,64.375,131.136
				c27.146,45.873,55.314,90.999,83.221,136.106c17.208-29.436,34.354-59.259,51.17-87.933c4.583-8.415,9.903-16.825,14.491-24.857
				c3.058-5.348,8.9-10.696,11.569-15.672c27.145-49.699,70.838-99.782,70.838-149.104v-20.262
				C363.209,126.938,356.581,108.204,356.208,107.051z M214.245,199.193c-19.107,0-40.021-9.554-50.344-35.939
				c-1.538-4.2-1.414-12.617-1.414-13.388v-11.852c0-33.636,28.56-48.932,53.406-48.932c30.588,0,54.245,24.472,54.245,55.06
				C270.138,174.729,244.833,199.193,214.245,199.193z"/>
		</g>
	</symbol>
	<symbol id="chevron-left" viewBox="0 0 511.999 511.999">
		<path d="M172.548,256.005L388.82,39.729c9.089-9.089,9.089-23.824,0-32.912s-23.824-9.089-32.912,0.002
			L123.18,239.551c-4.366,4.363-6.817,10.282-6.817,16.454c0,6.173,2.453,12.093,6.817,16.457l232.727,232.721
			c4.543,4.544,10.499,6.816,16.455,6.816s11.913-2.271,16.457-6.817c9.089-9.089,9.089-23.824,0-32.912L172.548,256.005z"/>
	</symbol>
	<symbol id="chevron-right" viewBox="0 0 512.001 512.001">
		<path  d="M388.819,239.537L156.092,6.816c-9.087-9.089-23.824-9.089-32.912,0.002
			c-9.087,9.089-9.087,23.824,0.002,32.912l216.27,216.266L123.179,472.272c-9.087,9.089-9.087,23.824,0.002,32.912
			c4.543,4.544,10.499,6.816,16.455,6.816c5.956,0,11.913-2.271,16.457-6.817L388.819,272.45c4.366-4.364,6.817-10.283,6.817-16.455
			C395.636,249.822,393.185,243.902,388.819,239.537z"/>
	</symbol>
	<symbol id="chevron-double-left" viewBox="0 0 511.999 511.999">
		<g>
			<path d="M79.457,256.005L295.729,39.729c9.087-9.089,9.087-23.824-0.002-32.912
				c-9.087-9.089-23.824-9.089-32.912,0.002L30.088,239.551c-4.364,4.363-6.816,10.282-6.816,16.454
				c0,6.173,2.453,12.093,6.817,16.457l232.727,232.721c4.543,4.544,10.499,6.816,16.455,6.816s11.913-2.271,16.457-6.817
				c9.087-9.089,9.087-23.824-0.002-32.912L79.457,256.005z"/>
			<path d="M265.639,256.005L481.911,39.729c9.089-9.089,9.089-23.824,0-32.912
				c-9.087-9.089-23.824-9.089-32.912,0.002L216.271,239.551c-4.364,4.364-6.816,10.283-6.816,16.455
				c0,6.173,2.453,12.093,6.817,16.457L449,505.185c4.541,4.543,10.498,6.814,16.454,6.814c5.956,0,11.913-2.271,16.457-6.817
				c9.089-9.089,9.089-23.824,0-32.912L265.639,256.005z"/>
		</g>
	</symbol>
	<symbol id="chevron-double-right" viewBox="0 0 512.001 512.001">
		<g>
			<path d="M481.911,239.541L249.184,6.818c-9.087-9.089-23.824-9.089-32.912,0.002
				c-9.087,9.089-9.087,23.824,0,32.912l216.27,216.266l-216.27,216.275c-9.087,9.089-9.087,23.824,0,32.912
				c4.544,4.544,10.501,6.816,16.455,6.816s11.913-2.271,16.457-6.817l232.727-232.732c4.364-4.364,6.816-10.283,6.816-16.455
				C488.727,249.824,486.276,243.905,481.911,239.541z"/>
			<path d="M302.547,255.994c0-6.173-2.453-12.093-6.817-16.457L63.001,6.816
				c-9.089-9.089-23.824-9.089-32.912,0.002c-9.087,9.089-9.087,23.824,0.002,32.912l216.272,216.266L30.089,472.272
				c-9.087,9.089-9.087,23.824,0.002,32.912c4.543,4.544,10.499,6.816,16.455,6.816s11.913-2.271,16.457-6.817L295.731,272.45
				C300.094,268.087,302.547,262.166,302.547,255.994z"/>
		</g>
	</symbol>
	<symbol id="school" viewBox="0 0 15.2 21.1">
		<g>
			<path d="M0,0v20.6c0,0.2,0.1,0.4,0.3,0.5c0.1,0,0.2,0.1,0.3,0.1c0.1,0,0.2,0,0.3-0.1l6.7-2.3l6.7,2.3
				c0.2,0.1,0.4,0.1,0.6,0c0.2-0.1,0.3-0.3,0.3-0.5V0H0z"/>
			<g>
				<path fill="#FFFFFF" d="M7.6,6.9c-0.1,0-0.2,0-0.2-0.1c-0.1,0-0.1-0.1-0.1-0.2s0-0.2,0.1-0.2s0.1-0.1,0.2-0.1s0.2,0,0.2,0.1
					c0.1,0.1,0.1,0.1,0.1,0.2c0,0.1,0,0.2-0.1,0.2C7.7,6.9,7.7,6.9,7.6,6.9z"/>
				<path fill="#FFFFFF" d="M13.2,10.9c-0.1,0-0.1,0-0.2-0.1s-0.1-0.1-0.1-0.2c0-0.1,0-0.1,0.1-0.2s0.1-0.1,0.2-0.1s0.1,0,0.2,0.1
					s0.1,0.1,0.1,0.2c0,0.1,0,0.1-0.1,0.2C13.3,10.9,13.3,10.9,13.2,10.9z"/>
				<path fill="#FFFFFF" d="M7.7,16c-1.2,0-2.1-0.6-2.1-0.6c-0.8-0.6-1.4-1.5-1.5-2.5l0-0.1H3.9c-0.6,0-1.2-0.5-1.2-1.2s0.5-1.2,1.2-1.2
					h0.2l0-0.1V8L1.9,6.9C1.8,6.9,1.7,6.8,1.7,6.7s0.1-0.2,0.2-0.3l5.6-2.7c0,0,0.1,0,0.1,0s0.1,0,0.1,0l5.6,2.7
					c0.1,0.1,0.2,0.2,0.2,0.3V9c0,0.2-0.1,0.3-0.3,0.3S12.9,9.1,12.9,9V7.1L11.1,8l-0.1,2.4l0,0.1l0.1,0h0.1c0.6,0,1.2,0.5,1.2,1.2
					s-0.5,1.2-1.2,1.2H11l0,0.1C10.9,14.6,9.4,15.9,7.7,16z M4.7,12.5c0,1.6,1.3,2.9,2.9,2.9c0.8,0,1.5-0.3,2.1-0.9
					c0.6-0.6,0.9-1.3,0.9-2.1v-1.7L7.7,12c0,0-0.1,0-0.1,0s-0.1,0-0.1,0l-2.8-1.2L4.7,12.5L4.7,12.5z M11.1,11.1v1.1h0.1
					c0.4,0,0.7-0.3,0.7-0.6s-0.3-0.6-0.6-0.6h-0.1L11.1,11.1z M3.9,11.1c-0.3,0-0.6,0.3-0.6,0.6s0.3,0.6,0.6,0.6h0.2v-1.2H3.9z
					M4.7,10.1l2.9,1.3l2.9-1.3l0.1-1.8V8.3L7.7,9.6c0,0-0.1,0-0.1,0s-0.1,0-0.1,0L4.7,8.3V10.1z M2.6,6.7L7.5,9l4-1.9l0-0.2H8.6
					c-0.2,0-0.3-0.1-0.3-0.3s0.1-0.3,0.3-0.3h2.9l0-0.2l-4-1.9L2.6,6.7z"/>
			</g>
		</g>
	</symbol>
	<symbol id="delete" viewBox="0 0 8.7 10.6">
		<g>
			<g>
				<g>
					<path d="M4.3,8.3c0.1,0,0.2-0.1,0.2-0.2V3.5c0-0.1-0.1-0.2-0.2-0.2S4.1,3.4,4.1,3.5v4.5C4.1,8.2,4.2,8.3,4.3,8.3z"/>
				</g>
				<g>
					<path d="M5.9,8.3c0.1,0,0.2-0.1,0.2-0.2V3.5c0-0.1-0.1-0.2-0.2-0.2S5.6,3.4,5.6,3.5v4.5C5.6,8.2,5.7,8.3,5.9,8.3z"/>
				</g>
				<g>
					<path d="M2.8,8.3C2.9,8.3,3,8.2,3,8.1V3.5C3,3.4,3,3.3,2.8,3.3S2.6,3.4,2.6,3.5v4.5C2.6,8.2,2.7,8.3,2.8,8.3z"/>
				</g>
				<g>
					<path d="M8.4,1.1H7.7H6V0.7C6,0.3,5.7,0,5.3,0h-2C3,0,2.7,0.3,2.7,0.7v0.4H1H0.2C0.1,1.1,0,1.2,0,1.3
						s0.1,0.2,0.2,0.2h0.6l0.7,8.8c0,0.1,0.1,0.2,0.2,0.2H7c0.1,0,0.2-0.1,0.2-0.2l0.7-8.8h0.5c0.1,0,0.2-0.1,0.2-0.2S8.6,1.1,8.4,1.1
						z M3.2,0.7c0-0.1,0.1-0.2,0.2-0.2h2c0.1,0,0.2,0.1,0.2,0.2v0.4H3.2V0.7z M6.8,10.1H1.9L1.2,1.5h6.2L6.8,10.1z"/>
				</g>
			</g>
		</g>
	</symbol>
	<symbol id="correct" viewBox="0 0 10.6 10.6">
		<g>
			<g>
				<path d="M10.1,0.5c-0.7-0.7-1.8-0.7-2.4,0L6.9,1.2c0,0,0,0,0,0L6.3,1.9c0,0,0,0,0,0L0.6,7.5c0,0,0,0,0,0c0,0,0,0,0,0
					c0,0,0,0,0,0l0,0c0,0,0,0,0,0c0,0,0,0,0,0s0,0,0,0l0,0l0,0l0,0L0,10.3c0,0.1,0,0.1,0.1,0.2c0,0,0.1,0.1,0.2,0.1c0,0,0,0,0.1,0
					L2.9,10l0,0l0,0l0,0c0,0,0,0,0,0c0,0,0,0,0,0s0,0,0,0l0,0c0,0,0,0,0,0c0,0,0,0,0,0c0,0,0,0,0,0l5.7-5.7c0,0,0,0,0,0l0.8-0.8
					c0,0,0,0,0,0l0.5-0.5C10.7,2.3,10.7,1.2,10.1,0.5z M8.5,3.8L6.8,2.1l0.9-0.9l1.8,1.8L8.5,3.8z M2.9,9.5L1.1,7.7l5.3-5.3l1.8,1.8
					L2.9,9.5z M0.9,8.2l1.5,1.5L0.5,10L0.9,8.2z M9.7,2.6L9.7,2.6L7.9,0.9l0,0c0.2-0.2,0.6-0.4,0.9-0.4s0.6,0.1,0.9,0.4
					C10.2,1.3,10.2,2.1,9.7,2.6z"/>
			</g>
		</g>
	</symbol>
	<symbol id="invalid" viewBox="0 0 15.2 21.1">
		<g>
			<path d="M0,0v20.6c0,0.2,0.1,0.4,0.3,0.5c0.1,0,0.2,0.1,0.3,0.1c0.1,0,0.2,0,0.3-0.1l6.7-2.3l6.7,2.3
				c0.2,0.1,0.4,0.1,0.6,0c0.2-0.1,0.3-0.3,0.3-0.5V0H0z"/>
			<g>
				<g>
					<path fill="#FFFFFF" d="M12.4,13.9c-0.1,0-0.2-0.1-0.2-0.1l-1.9-3.3C10.1,10.2,9.9,10,9.6,10H8c-0.2,0-0.3-0.1-0.3-0.3
						c0-0.1,0.1-0.3,0.3-0.3h1.6c0.5,0,0.9,0.3,1.2,0.7l1.9,3.3c0.1,0.1,0,0.3-0.1,0.4C12.5,13.9,12.4,13.9,12.4,13.9z"/>
					<path fill="#FFFFFF" d="M11.3,14.5c-0.1,0-0.2-0.1-0.2-0.1l-1.6-2.6H6.9c-0.8,0-0.9-0.5-1-1.1c0-0.1,0-0.2-0.1-0.3
						C5.6,9.7,5.2,7.4,5.2,7c-0.1-0.3,0-0.6,0.2-0.8C5.5,6,5.7,5.9,6.1,5.9h0.3c0.9,0,1.1,0.6,1.3,1.2c0,0.1,0.1,0.2,0.1,0.3l0.2,0.9
						h2c0.1,0,0.3,0.1,0.3,0.3s-0.1,0.3-0.3,0.3H7.5L7.2,7.6c0-0.1-0.1-0.2-0.1-0.3C6.9,6.7,6.8,6.5,6.3,6.5H6.1c-0.2,0-0.3,0-0.3,0.1
						c0,0.1-0.1,0.2,0,0.3c0.1,0.5,0.5,2.7,0.6,3.4c0,0.1,0,0.2,0.1,0.3c0.1,0.6,0.1,0.6,0.5,0.6h2.9l1.7,2.9c0.1,0.1,0,0.3-0.1,0.4
						C11.4,14.4,11.4,14.5,11.3,14.5z"/>
					<path fill="#FFFFFF" d="M6.5,5.6L6.5,5.6C5.6,5.6,4.9,4.9,5,4.1C5,3.7,5.1,3.3,5.4,3c0.3-0.3,0.7-0.4,1.1-0.4h0C7.3,2.6,8,3.3,8,4.1
						c0,0.4-0.2,0.8-0.4,1.1C7.3,5.5,6.9,5.6,6.5,5.6z M6.5,3.2C6.2,3.2,6,3.3,5.8,3.4C5.6,3.6,5.5,3.9,5.5,4.1c0,0.5,0.4,1,0.9,1
						C6.7,5.1,7,5,7.1,4.8c0.2-0.2,0.3-0.4,0.3-0.7l0,0C7.4,3.6,7,3.2,6.5,3.2L6.5,3.2z"/>
					<path fill="#FFFFFF" d="M6.3,15c-2.1,0-3.9-1.7-3.9-3.9c0-1.4,0.8-2.8,2.1-3.4c0.1-0.1,0.3,0,0.4,0.1C5,8,4.9,8.1,4.8,8.2
						C3.7,8.8,3,9.9,3,11.2c0,1.8,1.5,3.3,3.3,3.3c1.2,0,2.4-0.7,2.9-1.8c0.1-0.1,0.2-0.2,0.4-0.1c0.1,0.1,0.2,0.2,0.1,0.4
						C9.1,14.2,7.8,15,6.3,15z"/>
				</g>
			</g>
		</g>
	</symbol>
	<symbol id="attention" viewBox="0 0 10.8 10">
		<g>
			<path d="M1.5,10c-0.5,0-1-0.3-1.3-0.7c-0.3-0.5-0.3-1,0-1.5l3.9-7C4.3,0.3,4.8,0,5.4,0s1.1,0.3,1.3,0.8l3.9,7
				c0.3,0.5,0.3,1,0,1.5C10.3,9.7,9.8,10,9.3,10H1.5z M5.4,0.5C5,0.5,4.7,0.7,4.5,1L0.6,8c-0.2,0.3-0.2,0.7,0,1
				c0.2,0.3,0.5,0.5,0.9,0.5h7.7c0.4,0,0.7-0.2,0.9-0.5c0.2-0.3,0.2-0.7,0-1L6.3,1C6.1,0.7,5.8,0.5,5.4,0.5z"/>
			<path d="M5.4,8.7c-0.5,0-0.9-0.4-0.9-0.9C4.5,7.4,4.9,7,5.4,7s0.9,0.4,0.9,0.9C6.3,8.3,5.9,8.7,5.4,8.7z M5.4,7.4
				C5.2,7.4,5,7.6,5,7.8s0.2,0.4,0.4,0.4s0.4-0.2,0.4-0.4S5.6,7.4,5.4,7.4z"/>
			<path d="M5.4,6.2c-0.5,0-0.9-0.4-0.9-0.9V2.7c0-0.5,0.4-0.9,0.9-0.9c0.5,0,0.9,0.4,0.9,0.9v2.6
				C6.3,5.8,5.9,6.2,5.4,6.2z M5.4,2.3C5.2,2.3,5,2.5,5,2.7v2.6c0,0.2,0.2,0.4,0.4,0.4c0.2,0,0.4-0.2,0.4-0.4V2.7
				C5.8,2.5,5.6,2.3,5.4,2.3z"/>
		</g>
	</symbol>
	<symbol id="fire" viewBox="0 0 10.1 13.5">
		<g>
			<g>
				<path d="M10.1,8l0-0.1C9.9,5.9,9,4.6,8.2,3.5c-0.8-1-1.4-1.9-1.4-3.2c0-0.1-0.1-0.2-0.2-0.2c-0.1,0-0.2,0-0.3,0
					C5.1,0.9,4,2.4,3.7,3.9C3.4,4.9,3.4,6,3.4,6.7C2.2,6.5,2,4.8,2,4.7c0-0.1-0.1-0.2-0.1-0.2c-0.1,0-0.2,0-0.3,0
					C1.5,4.5,0.1,5.3,0,8.1c0,0.1,0,0.2,0,0.3c0,2.8,2.3,5.1,5.1,5.1s5.1-2.3,5.1-5.1C10.1,8.3,10.1,8.1,10.1,8z M5.1,12.9
					c-0.9,0-1.7-0.8-1.7-1.8c0,0,0-0.1,0-0.1c0-0.4,0.1-0.7,0.2-0.9c0.2,0.3,0.5,0.7,0.9,0.7c0.2,0,0.3-0.1,0.3-0.3
					c0-0.4,0-0.9,0.1-1.3C5,8.9,5.2,8.5,5.4,8.2C5.5,8.6,5.8,8.9,6,9.2c0.3,0.5,0.7,0.9,0.7,1.8c0,0,0,0.1,0,0.1
					C6.7,12.1,6,12.9,5.1,12.9z M6.8,12.5c0.3-0.4,0.5-0.9,0.5-1.4c0-0.1,0-0.1,0-0.2c-0.1-0.9-0.5-1.5-0.8-2C6.2,8.5,5.9,8.1,5.9,7.6
					c0-0.1-0.1-0.2-0.2-0.3c-0.1,0-0.2,0-0.3,0c-0.5,0.4-1,1.1-1.1,1.7c-0.1,0.3-0.1,0.7-0.1,1C4,9.9,3.9,9.5,3.9,9.5
					c0-0.1-0.1-0.2-0.1-0.2c-0.1,0-0.2,0-0.3,0c-0.1,0-0.7,0.4-0.7,1.7c0,0,0,0.1,0,0.1c0,0.5,0.2,1,0.5,1.4c-1.6-0.7-2.7-2.3-2.7-4.1
					c0-0.1,0-0.2,0-0.3c0-1.7,0.6-2.5,0.9-2.9c0.2,0.9,0.9,2,2.1,2c0.2,0,0.3-0.1,0.3-0.3c0-0.9,0-2,0.3-3c0.3-1.1,1.1-2.3,2-3.2
					C6.4,2,7,2.9,7.7,3.8c0.8,1.1,1.7,2.2,1.8,4.1l0,0.1c0,0.1,0,0.2,0,0.4C9.5,10.3,8.4,11.9,6.8,12.5z"/>
			</g>
		</g>
	</symbol>	
</svg>